<svg xmlns="http://www.w3.org/2000/svg" viewBox="0 0 342.17 118.93"><defs><style>.cls-1{fill:#2b97e0;}.cls-2{fill:#fff;}.cls-3{fill:#0071bc;}.cls-4{fill:#5eb3d1;}</style></defs><g id="Layer_2" data-name="Layer 2"><g id="Layer_1-2" data-name="Layer 1"><path class="cls-1" d="M24,72.92l-2.68-7.23H11.4L8.69,72.92h-8L12.44,41.36H20.2L31.87,72.92ZM18.85,59.06,16.3,50.67l-2.46,8.39Z"/><path class="cls-2" d="M19.85,41.86l11.3,30.56H24.31l-2.69-7.23H11.05l-2.7,7.23H1.44L12.79,41.86h7.06m-6.67,17.7h6.34L16.3,48.92,13.18,59.56m7.36-18.7H12.09l-.24.65L.5,72.07,0,73.42H9l.24-.65,2.47-6.58h9.18l2.44,6.58.24.65h9l-.5-1.34L20.79,41.52l-.25-.66Zm-6,17.7,1.8-6.14,1.86,6.14Z"/><polygon class="cls-1" points="32.3 83.08 37.48 70.31 29.27 51.22 36.93 51.22 41.16 62.08 45.43 51.22 53.08 51.22 39.89 83.08 32.3 83.08"/><path class="cls-2" d="M52.33,51.72,39.56,82.58H33L38,70.3,30,51.72h6.56l4.57,11.74,4.61-11.74h6.56m1.5-1H45.09l-.25.63-3.68,9.36-3.64-9.36-.25-.63H28.51l.6,1.39,7.82,18.2L32.11,82.2l-.56,1.38h8.67l.26-.62L53.26,52.1l.57-1.38Z"/><rect class="cls-1" x="54.84" y="39.93" width="7.13" height="32.99"/><path class="cls-2" d="M61.47,40.43v32H55.34v-32h6.13m1-1H54.34v34h8.13v-34Z"/><path class="cls-1" d="M76.48,73.31A11.07,11.07,0,0,1,71.18,72a10.89,10.89,0,0,1-4.12-4,11.14,11.14,0,0,1-1.63-6,11.5,11.5,0,0,1,.95-4.67,10.39,10.39,0,0,1,2.51-3.6,12.08,12.08,0,0,1,3.53-2.21,10.58,10.58,0,0,1,4.06-.81,10.07,10.07,0,0,1,1.9.2,8.8,8.8,0,0,1,2.37.89,6,6,0,0,1,1.27.86V51.22h7.09v21.7H82V71.38a6.4,6.4,0,0,1-2,1.19A10,10,0,0,1,76.48,73.31Zm1-15.7a4.76,4.76,0,0,0-3.27,1.27,4,4,0,0,0-1.41,3.17,4,4,0,0,0,1.41,3.15,4.75,4.75,0,0,0,3.27,1.26,4.6,4.6,0,0,0,3.19-1.22,4.5,4.5,0,0,0,0-6.4A4.52,4.52,0,0,0,77.5,57.61Z"/><path class="cls-2" d="M76.48,51.26a9.06,9.06,0,0,1,1.81.19,8.24,8.24,0,0,1,2.23.84,5.45,5.45,0,0,1,2,1.72V51.72h6.09v20.7H82.52V70.06a5.44,5.44,0,0,1-2.71,2,9.34,9.34,0,0,1-3.33.7,10.41,10.41,0,0,1-9-5.06,10.61,10.61,0,0,1-1.55-5.7,11.05,11.05,0,0,1,.9-4.47,9.89,9.89,0,0,1,2.4-3.43A11.29,11.29,0,0,1,72.61,52a10.16,10.16,0,0,1,3.87-.77m1,15.7A5.1,5.1,0,0,0,81,65.61a4.56,4.56,0,0,0,1.5-3.56A4.61,4.61,0,0,0,81,58.46a5.1,5.1,0,0,0-3.52-1.35,5.29,5.29,0,0,0-3.61,1.4,4.76,4.76,0,0,0,0,7.07A5.31,5.31,0,0,0,77.5,67m-1-16.7a11.19,11.19,0,0,0-4.25.85,12.36,12.36,0,0,0-3.67,2.3,10.8,10.8,0,0,0-2.64,3.77,12.18,12.18,0,0,0-1,4.87,11.72,11.72,0,0,0,1.7,6.23,11.46,11.46,0,0,0,4.31,4.14,11.67,11.67,0,0,0,5.54,1.39A10.43,10.43,0,0,0,80.17,73a7.72,7.72,0,0,0,1.35-.67v1h8.09V50.72H81.52v1c-.17-.11-.35-.22-.54-.32a9.57,9.57,0,0,0-2.5-.94,11.1,11.1,0,0,0-2-.2Zm1,15.7a4.27,4.27,0,0,1-2.94-1.13,3.51,3.51,0,0,1-1.24-2.78,3.57,3.57,0,0,1,1.24-2.8,4.25,4.25,0,0,1,2.94-1.14,4.08,4.08,0,0,1,2.85,1.1,4,4,0,0,1,0,5.66A4.07,4.07,0,0,1,77.5,66Z"/><path class="cls-1" d="M107.36,72.92V61.46a3.78,3.78,0,0,0-.85-2.69,2.88,2.88,0,0,0-2.25-.9c-2.27,0-3.32,1.17-3.32,3.67V72.92H93.81V51.22h7.13v2a7,7,0,0,1,1.73-1.4,7.38,7.38,0,0,1,3.76-1,7.62,7.62,0,0,1,5.94,2.4c1.41,1.58,2.12,3.9,2.12,6.9V72.92Z"/><path class="cls-2" d="M106.43,51.26A7.09,7.09,0,0,1,112,53.49c1.34,1.49,2,3.68,2,6.57V72.42h-6.13v-11a4.34,4.34,0,0,0-1-3,3.44,3.44,0,0,0-2.62-1.05q-3.83,0-3.82,4.17V72.42H94.31V51.72h6.13v3.07a6.29,6.29,0,0,1,2.48-2.56,6.93,6.93,0,0,1,3.51-1m0-1a7.83,7.83,0,0,0-4,1.11,7.68,7.68,0,0,0-1,.67V50.72H93.31v22.7h8.13V61.54c0-2.22.84-3.17,2.82-3.17a2.45,2.45,0,0,1,1.89.74,3.37,3.37,0,0,1,.71,2.35v12H115V60.06c0-3.13-.76-5.56-2.25-7.23a8.06,8.06,0,0,0-6.31-2.57Z"/><path class="cls-1" d="M142.31,73.36a15.62,15.62,0,0,1-6.26-1.29,15.44,15.44,0,0,1-5-3.46,16,16,0,0,1-3.3-5.14,16.33,16.33,0,0,1-1.21-6.25,16.68,16.68,0,0,1,2.05-8.14A15.51,15.51,0,0,1,142.31,41a16.08,16.08,0,0,1,7.57,1.8,15,15,0,0,1,5.56,4.89l.28.41-6.09,4.19-.28-.42a8.75,8.75,0,0,0-3-2.76,8.2,8.2,0,0,0-4-1,7.62,7.62,0,0,0-5.94,2.62,9.33,9.33,0,0,0-2.4,6.48,9.22,9.22,0,0,0,2.4,6.43,7.63,7.63,0,0,0,5.94,2.6,8.2,8.2,0,0,0,4.09-1.08,9.37,9.37,0,0,0,3.12-2.92l.28-.43,6,4.21-.27.41A15.15,15.15,0,0,1,150,71.5,16.11,16.11,0,0,1,142.31,73.36Z"/><path class="cls-2" d="M142.31,41.52a15.62,15.62,0,0,1,7.34,1.74A14.4,14.4,0,0,1,155,48l-5.26,3.62a9.14,9.14,0,0,0-3.21-2.91,8.57,8.57,0,0,0-4.24-1.08A8.14,8.14,0,0,0,136,50.41,10.38,10.38,0,0,0,136,64a8.18,8.18,0,0,0,6.31,2.76,8.52,8.52,0,0,0,4.34-1.15,9.58,9.58,0,0,0,3.28-3.08l5.22,3.64a14.5,14.5,0,0,1-5.4,4.9,15.56,15.56,0,0,1-7.44,1.8,15.3,15.3,0,0,1-10.94-4.6,15.49,15.49,0,0,1-3.2-5,16.5,16.5,0,0,1,.82-14,15,15,0,0,1,13.32-7.8m0-1a16,16,0,0,0-14.2,8.32,17.54,17.54,0,0,0-.87,14.82,16.76,16.76,0,0,0,3.41,5.3,16.29,16.29,0,0,0,11.66,4.9,16.61,16.61,0,0,0,7.91-1.92A15.56,15.56,0,0,0,156,66.71l.53-.81-.79-.56-5.22-3.64-.84-.58-.57.85a8.63,8.63,0,0,1-2.94,2.76,7.52,7.52,0,0,1-3.85,1,7.19,7.19,0,0,1-5.58-2.44,9.39,9.39,0,0,1,0-12.23,7.16,7.16,0,0,1,5.57-2.46,7.69,7.69,0,0,1,3.76,1,8.21,8.21,0,0,1,2.86,2.6l.57.83.83-.57,5.26-3.61.82-.57-.56-.82a15.54,15.54,0,0,0-5.74-5.06,16.65,16.65,0,0,0-7.8-1.85Z"/><path class="cls-1" d="M168.51,73.27a11.69,11.69,0,0,1-5.6-1.37,10.58,10.58,0,0,1-4.1-4,12.11,12.11,0,0,1,0-11.82,10.49,10.49,0,0,1,4.1-4,12.09,12.09,0,0,1,11.2,0,10.66,10.66,0,0,1,4.12,4,11.89,11.89,0,0,1,0,11.74,10.6,10.6,0,0,1-4.12,4A11.76,11.76,0,0,1,168.51,73.27Zm0-15.4A4,4,0,0,0,165.56,59a4.31,4.31,0,0,0,0,6,4,4,0,0,0,2.95,1.16,4.14,4.14,0,0,0,3-1.15,4,4,0,0,0,1.19-3,3.9,3.9,0,0,0-1.2-3A4.14,4.14,0,0,0,168.51,57.87Z"/><path class="cls-2" d="M168.51,51.26a11.11,11.11,0,0,1,5.36,1.32,10.12,10.12,0,0,1,3.93,3.81,10.73,10.73,0,0,1,1.48,5.6,10.86,10.86,0,0,1-1.48,5.63,10.1,10.1,0,0,1-3.93,3.83,11.58,11.58,0,0,1-10.72,0,9.91,9.91,0,0,1-3.91-3.8,11.59,11.59,0,0,1,0-11.3,9.89,9.89,0,0,1,3.91-3.79,11.16,11.16,0,0,1,5.36-1.31m0,15.4a4.64,4.64,0,0,0,3.33-1.29A4.45,4.45,0,0,0,173.19,62a4.38,4.38,0,0,0-1.36-3.32,4.61,4.61,0,0,0-3.32-1.3,4.56,4.56,0,0,0-3.3,1.3A4.41,4.41,0,0,0,163.86,62a4.47,4.47,0,0,0,1.35,3.37,4.56,4.56,0,0,0,3.3,1.3m0-16.4a12.19,12.19,0,0,0-5.84,1.43,11,11,0,0,0-4.29,4.16,12.59,12.59,0,0,0,0,12.32,10.94,10.94,0,0,0,4.29,4.17,12.58,12.58,0,0,0,11.67,0,11.12,11.12,0,0,0,4.32-4.21,12.37,12.37,0,0,0,0-12.24,11.11,11.11,0,0,0-4.32-4.18,12.19,12.19,0,0,0-5.83-1.44Zm0,15.4a3.59,3.59,0,0,1-2.61-1,3.49,3.49,0,0,1-1-2.65,3.44,3.44,0,0,1,1-2.6,3.87,3.87,0,0,1,5.24,0,3.41,3.41,0,0,1,1.05,2.6,3.48,3.48,0,0,1-1,2.66,3.64,3.64,0,0,1-2.64,1Z"/><path class="cls-1" d="M196.76,72.92V61.46a3.78,3.78,0,0,0-.86-2.69,2.88,2.88,0,0,0-2.25-.9c-2.27,0-3.32,1.17-3.32,3.67V72.92H183.2V51.22h7.13v2a7,7,0,0,1,1.73-1.4,7.38,7.38,0,0,1,3.76-1,7.6,7.6,0,0,1,5.94,2.4c1.41,1.58,2.13,3.9,2.13,6.9V72.92Z"/><path class="cls-2" d="M195.82,51.26a7.13,7.13,0,0,1,5.57,2.23q2,2.23,2,6.57V72.42h-6.13v-11a4.3,4.3,0,0,0-1-3,3.43,3.43,0,0,0-2.62-1.05q-3.83,0-3.82,4.17V72.42H183.7V51.72h6.13v3.07a6.35,6.35,0,0,1,2.48-2.56,6.93,6.93,0,0,1,3.51-1m0-1a7.83,7.83,0,0,0-4,1.11,7.68,7.68,0,0,0-1,.67V50.72H182.7v22.7h8.13V61.54c0-2.22.84-3.17,2.82-3.17a2.45,2.45,0,0,1,1.89.74,3.39,3.39,0,0,1,.72,2.35v12h8.13V60.06c0-3.13-.76-5.56-2.26-7.23a8,8,0,0,0-6.31-2.57Z"/><path class="cls-1" d="M156.34,118.43a83.34,83.34,0,0,1-25-3.83,63.07,63.07,0,0,1-22-11.93A44.69,44.69,0,0,1,95.52,82.16c-.35-1.16-.66-2.37-.94-3.7l-.12-.6h1.68l.09.38c.29,1.19.61,2.33,1,3.38a39.32,39.32,0,0,0,5.48,10.57,42.55,42.55,0,0,0,8.3,8.49,54.67,54.67,0,0,0,21.53,9.65,71.7,71.7,0,0,0,15.17,1.58c2.71,0,5.52-.15,8.33-.43a90.21,90.21,0,0,0,22.74-5.37A88.41,88.41,0,0,0,199.11,95.3a72.32,72.32,0,0,0,16.08-15.69A57.41,57.41,0,0,0,219.44,73a13.19,13.19,0,0,1-3.15.38,11.52,11.52,0,0,1-2.62-.31,10.09,10.09,0,0,1-2.47-.94,8.9,8.9,0,0,1-2.06-1.51,6.54,6.54,0,0,1-1.44-2.17,7.3,7.3,0,0,1-.55-2.69v-.51h6.75l0,.47a1.61,1.61,0,0,0,.74,1.2,2.87,2.87,0,0,0,1.82.58,3.08,3.08,0,0,0,1.53-.43.88.88,0,0,0,.5-.8.84.84,0,0,0-.29-.69,3.23,3.23,0,0,0-1.37-.57l-2.71-.72A13.8,13.8,0,0,1,211,63a8.53,8.53,0,0,1-2-1.43,4.86,4.86,0,0,1-1-1.67,6,6,0,0,1-.39-1.52,11,11,0,0,1,0-1.34,5.64,5.64,0,0,1,2.65-4.45,9.79,9.79,0,0,1,5.93-1.87,13.21,13.21,0,0,1,2.55.24,10.36,10.36,0,0,1,2.4.78,7.36,7.36,0,0,1,2.05,1.4,6.32,6.32,0,0,1,1.42,2.12,7.36,7.36,0,0,1,.38,1.26,33.29,33.29,0,0,0-1.84-15.62l-.4-.94q-.26-.64-.54-1.26c-.15-.28-.29-.57-.43-.87s-.41-.85-.64-1.25-.35-.66-.52-1-.39-.77-.61-1.14-.28-.52-.41-.78l-.17-.33-.6-1a35.65,35.65,0,0,0-6.17-7.84,53,53,0,0,0-18.38-11.1,73.68,73.68,0,0,0-22.5-4.24c-.78,0-1.56,0-2.35,0A91.27,91.27,0,0,0,148.2,11.7,75.58,75.58,0,0,0,126.13,21,77.25,77.25,0,0,0,108,36.82a64.43,64.43,0,0,0-6.6,9.67l-.15.26H99.48l.38-.74a64.89,64.89,0,0,1,6.77-10.28A81.4,81.4,0,0,1,124.87,19.1a122.68,122.68,0,0,1,22-11.59,97.48,97.48,0,0,1,24.48-6.32,88.73,88.73,0,0,1,11-.69,80.88,80.88,0,0,1,15,1.39,63.34,63.34,0,0,1,25.19,10.44,52.34,52.34,0,0,1,10.52,10l.38.48c.26.33.52.65.77,1l.34.5c.24.35.48.7.7,1.05a27,27,0,0,1,1.85,3.26,20.54,20.54,0,0,1,1,2.31l.45,1.12c.32.86.6,1.72.86,2.56l.32,1a49.54,49.54,0,0,1,1.86,14.64,52.51,52.51,0,0,1-2.32,14.21c-.22.69-.45,1.38-.7,2.06a3.44,3.44,0,0,0,2.95-.83,3.85,3.85,0,0,0,.92-2.87V51.22h7.13v21.7h-7.13V71.2a6.52,6.52,0,0,1-1.56,1.23,6.73,6.73,0,0,1-3.32.93,11.24,11.24,0,0,1-1.84-.16,69.13,69.13,0,0,1-10,14.92,85.29,85.29,0,0,1-20.33,16.73A99.08,99.08,0,0,1,181.61,115a97.93,97.93,0,0,1-25.27,3.48Zm60.12-61.71a2.23,2.23,0,0,0-1.3.33.76.76,0,0,0-.36.69c0,.17,0,.74,1.44,1.09l3.51.93a10.79,10.79,0,0,1,2.62,1.08A8.35,8.35,0,0,1,223.9,62q.22-.82.39-1.62c.13-.58.24-1.16.34-1.73h-6.3v-.49C218.31,57.45,218.07,56.72,216.46,56.72Z"/><path class="cls-2" d="M182.29,1a79.65,79.65,0,0,1,14.94,1.38,63.07,63.07,0,0,1,25,10.36,51.9,51.9,0,0,1,10.43,9.85c.38.49.78,1,1.13,1.45s.7,1,1,1.53a28.39,28.39,0,0,1,1.83,3.22c.58,1.08,1,2.26,1.45,3.39s.78,2.34,1.16,3.51a49.21,49.21,0,0,1,1.84,14.48,51.9,51.9,0,0,1-2.3,14.07c-.26.86-.57,1.7-.87,2.54l.07,0a3.76,3.76,0,0,0,1.19.2,3.72,3.72,0,0,0,2.69-1,4.31,4.31,0,0,0,1.07-3.23v-11h6.13v20.7h-6.13V69.65A5.87,5.87,0,0,1,240.62,72a6.18,6.18,0,0,1-3.07.86,10.2,10.2,0,0,1-2.12-.23A68.47,68.47,0,0,1,225.3,87.79a84.86,84.86,0,0,1-20.22,16.63,98.21,98.21,0,0,1-23.61,10,97.44,97.44,0,0,1-25.13,3.46,83,83,0,0,1-24.84-3.81,63.23,63.23,0,0,1-21.82-11.82A44.48,44.48,0,0,1,96,82c-.37-1.2-.67-2.42-.93-3.65h.68c.27,1.15.59,2.3,1,3.42a39.74,39.74,0,0,0,5.55,10.7,43.38,43.38,0,0,0,8.41,8.6,54.84,54.84,0,0,0,21.72,9.73,71.49,71.49,0,0,0,15.27,1.6,83.72,83.72,0,0,0,8.39-.43,91,91,0,0,0,22.87-5.4,89.5,89.5,0,0,0,20.49-10.87,73.36,73.36,0,0,0,16.18-15.8,58.06,58.06,0,0,0,4.87-7.78c-.31.11-.61.23-.94.32a12.82,12.82,0,0,1-3.23.41,10.57,10.57,0,0,1-2.51-.3,9.34,9.34,0,0,1-2.34-.89,8.72,8.72,0,0,1-1.95-1.42,6.24,6.24,0,0,1-1.33-2,6.94,6.94,0,0,1-.51-2.51h5.76a2.12,2.12,0,0,0,.93,1.57,3.43,3.43,0,0,0,2.13.68,3.59,3.59,0,0,0,1.79-.51,1.43,1.43,0,0,0,.29-2.29A4.13,4.13,0,0,0,217,64.5l-2.7-.71a13.3,13.3,0,0,1-3-1.18,8.45,8.45,0,0,1-1.86-1.35,4.42,4.42,0,0,1-.93-1.5,5.4,5.4,0,0,1-.37-1.38,12.83,12.83,0,0,1,0-1.29A5.19,5.19,0,0,1,210.49,53a9.23,9.23,0,0,1,5.63-1.77,13.16,13.16,0,0,1,2.46.23,9.52,9.52,0,0,1,2.28.75,6.71,6.71,0,0,1,1.91,1.3,5.76,5.76,0,0,1,1.31,2,7,7,0,0,1,.51,2.65h-5.77c0-1.29-.81-1.93-2.36-1.93a2.72,2.72,0,0,0-1.59.42,1.24,1.24,0,0,0-.57,1.12c0,.75.66,1.27,1.82,1.55l3.5.93a9.76,9.76,0,0,1,2.49,1,6.52,6.52,0,0,1,1.63,1.29,6.12,6.12,0,0,1,.39.5c.24-.86.46-1.71.65-2.58a34.79,34.79,0,0,0-1.23-19.72c-.33-.74-.62-1.5-1-2.23s-.68-1.46-1.09-2.16-.71-1.45-1.13-2.15c-.2-.35-.37-.72-.56-1.08l-.62-1.06a36.36,36.36,0,0,0-6.25-7.95,53.58,53.58,0,0,0-18.55-11.21,74.38,74.38,0,0,0-22.67-4.27c-.78,0-1.57,0-2.36,0a91.79,91.79,0,0,0-21.28,2.61,76,76,0,0,0-22.22,9.38,77.71,77.71,0,0,0-18.27,15.9,64.82,64.82,0,0,0-6.66,9.75h-.63A64.74,64.74,0,0,1,107,36a81,81,0,0,1,18.13-16.52A121.12,121.12,0,0,1,147,8a97,97,0,0,1,24.36-6.3A89.6,89.6,0,0,1,182.29,1m0-1h0a89.7,89.7,0,0,0-11,.69,98.21,98.21,0,0,0-24.61,6.36A122.58,122.58,0,0,0,124.6,18.68a81.8,81.8,0,0,0-18.36,16.74,65.65,65.65,0,0,0-6.82,10.36l-.77,1.47h2.87l.29-.52a64,64,0,0,1,6.55-9.6,77,77,0,0,1,18-15.69,75,75,0,0,1,21.93-9.25,90.73,90.73,0,0,1,21-2.58c.78,0,1.56,0,2.33,0A73,73,0,0,1,194,13.86a52.47,52.47,0,0,1,18.21,11,35.42,35.42,0,0,1,6.08,7.72l.61,1.06.15.29c.13.26.27.53.41.78s.41.75.61,1.14.34.68.52,1,.42.8.63,1.23.29.6.44.9.35.79.52,1.21.27.63.41.94a32.62,32.62,0,0,1,2,13.17,6.33,6.33,0,0,0-1.14-1.49,7.87,7.87,0,0,0-2.18-1.49,10.39,10.39,0,0,0-2.53-.82,13.36,13.36,0,0,0-2.64-.25,10.21,10.21,0,0,0-6.22,2A6.13,6.13,0,0,0,207,57.08a12.1,12.1,0,0,0,0,1.39,5.86,5.86,0,0,0,.43,1.64A5.23,5.23,0,0,0,208.64,62a9.51,9.51,0,0,0,2.09,1.52,14,14,0,0,0,3.18,1.25h-7.27v1a8,8,0,0,0,.59,2.88A6.94,6.94,0,0,0,208.79,71a9.51,9.51,0,0,0,2.18,1.6,11.17,11.17,0,0,0,2.58,1,12,12,0,0,0,2.74.32,14.25,14.25,0,0,0,2.18-.17,56.55,56.55,0,0,1-3.68,5.62,72,72,0,0,1-16,15.59,88.2,88.2,0,0,1-20.26,10.74A89.74,89.74,0,0,1,156,111c-2.79.27-5.58.42-8.29.42a70.58,70.58,0,0,1-15-1.57,54.09,54.09,0,0,1-21.33-9.56,42.13,42.13,0,0,1-8.21-8.39,38.58,38.58,0,0,1-5.41-10.43c-.35-1-.66-2.17-.94-3.33l-.18-.77h-2.7l.25,1.2c.28,1.35.59,2.57,1,3.74a45.28,45.28,0,0,0,14,20.76,63.72,63.72,0,0,0,22.16,12,83.75,83.75,0,0,0,25.14,3.86,98.36,98.36,0,0,0,25.4-3.49,99.9,99.9,0,0,0,23.87-10.16,85.82,85.82,0,0,0,20.45-16.83A70.11,70.11,0,0,0,236,73.75a11.31,11.31,0,0,0,1.55.11,7.11,7.11,0,0,0,3.56-1,5.81,5.81,0,0,0,.82-.54v1.1h8.13V50.72h-8c0-.18,0-.35,0-.52a49.7,49.7,0,0,0-1.88-14.78c-.12-.37-.22-.71-.33-1-.26-.84-.54-1.7-.85-2.54-.17-.41-.32-.78-.46-1.15a23.36,23.36,0,0,0-1.05-2.38,29,29,0,0,0-1.88-3.3c-.22-.35-.47-.71-.72-1.07l-.31-.46c-.27-.37-.54-.71-.8-1l-.37-.46A53.16,53.16,0,0,0,222.8,11.92,64,64,0,0,0,197.41,1.4,81,81,0,0,0,182.29,0Zm57,66c.16-.48.33-1,.49-1.48a53.61,53.61,0,0,0,2.19-11.48v9.7a3.44,3.44,0,0,1-.76,2.51,2.76,2.76,0,0,1-1.92.75Zm-21.41-7.28-1.47-.38c-.4-.1-1.05-.32-1.08-.67,0,0,0-.11.16-.22a1.73,1.73,0,0,1,1-.24c1.34,0,1.35.53,1.36,1l0,.56Zm1.56.42H224c-.07.37-.14.75-.23,1.12s-.12.54-.18.81c-.3-.22-.63-.45-1-.67a10.76,10.76,0,0,0-2.73-1.13l-.49-.13Zm-3,7.83A2.26,2.26,0,0,1,215,66.5c-.53-.4-.54-.72-.55-.82l0-.83,2.34.62a3.05,3.05,0,0,1,1.17.46.37.37,0,0,1,.12.32c0,.08,0,.21-.27.38a2.65,2.65,0,0,1-1.3.35Z"/><rect class="cls-1" x="254.28" y="39.93" width="7.13" height="32.99"/><path class="cls-2" d="M260.91,40.43v32h-6.13v-32h6.13m1-1h-8.13v34h8.13v-34Z"/><polygon class="cls-1" points="268.05 72.92 268.05 57.09 264.28 57.09 264.28 51.22 268.05 51.22 268.05 43.27 275.18 43.27 275.18 51.22 279.54 51.22 279.54 57.09 275.18 57.09 275.18 72.92 268.05 72.92"/><path class="cls-2" d="M274.68,43.77v7.95H279v4.87h-4.36V72.42h-6.13V56.59h-3.77V51.72h3.77V43.77h6.13m1-1h-8.13v7.95h-3.77v6.87h3.77V73.42h8.13V57.59H280V50.72h-4.36V42.77Z"/><path class="cls-1" d="M285.84,48.17a4.37,4.37,0,0,1-3.06-1.2,4,4,0,0,1,0-5.87,4.43,4.43,0,0,1,3.06-1.17,4.25,4.25,0,0,1,3,1.18A3.86,3.86,0,0,1,290.1,44,4,4,0,0,1,288.85,47,4.23,4.23,0,0,1,285.84,48.17Z"/><path class="cls-2" d="M285.84,40.43a3.76,3.76,0,0,1,2.66,1A3.38,3.38,0,0,1,289.6,44a3.43,3.43,0,0,1-1.1,2.58,3.73,3.73,0,0,1-2.66,1.06,3.87,3.87,0,0,1-2.72-1.06A3.4,3.4,0,0,1,282,44a3.34,3.34,0,0,1,1.14-2.56,3.9,3.9,0,0,1,2.72-1m0-1a4.91,4.91,0,0,0-3.4,1.3A4.32,4.32,0,0,0,281,44a4.37,4.37,0,0,0,1.46,3.31,4.83,4.83,0,0,0,3.4,1.33,4.67,4.67,0,0,0,3.35-1.34,4.56,4.56,0,0,0,0-6.59,4.76,4.76,0,0,0-3.35-1.31Z"/><rect class="cls-1" x="282.28" y="51.22" width="7.13" height="21.71"/><path class="cls-2" d="M288.91,51.72v20.7h-6.13V51.72h6.13m1-1h-8.13v22.7h8.13V50.72Z"/><path class="cls-1" d="M307.62,72.92V61.46a3.78,3.78,0,0,0-.85-2.69,2.9,2.9,0,0,0-2.25-.9c-2.27,0-3.33,1.17-3.33,3.67V72.92h-7.13V51.22h7.13v2a7.28,7.28,0,0,1,1.74-1.4,7.38,7.38,0,0,1,3.76-1,7.62,7.62,0,0,1,5.94,2.4c1.41,1.58,2.12,3.9,2.12,6.9V72.92Z"/><path class="cls-2" d="M306.69,51.26a7.09,7.09,0,0,1,5.56,2.23c1.34,1.49,2,3.68,2,6.57V72.42h-6.13v-11a4.3,4.3,0,0,0-1-3,3.41,3.41,0,0,0-2.61-1.05q-3.82,0-3.83,4.17V72.42h-6.13V51.72h6.13v3.07a6.31,6.31,0,0,1,2.49-2.56,6.93,6.93,0,0,1,3.51-1m0-1a7.83,7.83,0,0,0-4,1.11,8.59,8.59,0,0,0-1,.67V50.72h-8.13v22.7h8.13V61.54c0-2.22.85-3.17,2.83-3.17a2.41,2.41,0,0,1,1.88.74,3.32,3.32,0,0,1,.72,2.35v12h8.13V60.06c0-3.13-.76-5.56-2.25-7.23a8.06,8.06,0,0,0-6.31-2.57Z"/><path class="cls-1" d="M329.36,83.25a11.73,11.73,0,0,1-6.43-1.83,11.27,11.27,0,0,1-4.26-4.89l-.2-.44.44-.22,2.51-1.22,2.51-1.21.49-.23.19.51a4.2,4.2,0,0,0,1.86,2.11,5.52,5.52,0,0,0,2.89.88,5.11,5.11,0,0,0,3.9-1.38,6.06,6.06,0,0,0,1.35-4,6.51,6.51,0,0,1-1.78,1.19,9.29,9.29,0,0,1-3.95.86,10.69,10.69,0,0,1-9.3-5.34A11.25,11.25,0,0,1,318,62.13a11.87,11.87,0,0,1,.91-4.68,10.62,10.62,0,0,1,2.43-3.62,11.46,11.46,0,0,1,3.47-2.25,10.54,10.54,0,0,1,4.05-.82,9.22,9.22,0,0,1,3.94.86,6.59,6.59,0,0,1,1.77,1.18V51.22h7.08V69.54c0,4.5-1.08,7.94-3.2,10.24S333.27,83.25,329.36,83.25Zm.58-25.64a4.42,4.42,0,0,0-3.15,1.23,4.11,4.11,0,0,0-1.3,3.14,4.25,4.25,0,0,0,1.31,3.27,4.32,4.32,0,0,0,3.14,1.26,4.4,4.4,0,0,0,3.14-1.29A4.23,4.23,0,0,0,334.43,62a4,4,0,0,0-1.31-3.17A4.55,4.55,0,0,0,329.94,57.61Z"/><path class="cls-2" d="M328.88,51.26a8.72,8.72,0,0,1,3.73.81,5.2,5.2,0,0,1,2.48,2.2V51.72h6.08V69.54q0,6.58-3.07,9.9t-8.74,3.31A11.21,11.21,0,0,1,323.2,81a10.67,10.67,0,0,1-4.07-4.68l2.51-1.22,2.5-1.21a4.77,4.77,0,0,0,2.07,2.37,6,6,0,0,0,3.15.95c4.13,0,6-2.46,5.73-7.37a5,5,0,0,1-2.47,2.2,8.77,8.77,0,0,1-3.74.82,10.34,10.34,0,0,1-5-1.3A10.23,10.23,0,0,1,320,67.77a10.71,10.71,0,0,1-1.49-5.64,11.48,11.48,0,0,1,.87-4.49,9.89,9.89,0,0,1,2.32-3.44A10.76,10.76,0,0,1,325,52a10,10,0,0,1,3.86-.78M329.94,67a4.94,4.94,0,0,0,3.48-1.43,4.7,4.7,0,0,0,1.51-3.6,4.5,4.5,0,0,0-1.48-3.54,5,5,0,0,0-3.51-1.33,4.94,4.94,0,0,0-3.49,1.37A4.59,4.59,0,0,0,325,62a4.81,4.81,0,0,0,1.46,3.64A4.91,4.91,0,0,0,329.94,67m-1.06-16.75a10.93,10.93,0,0,0-4.24.86A11.76,11.76,0,0,0,321,53.47a11.1,11.1,0,0,0-2.55,3.78,12.52,12.52,0,0,0-1,4.88,11.83,11.83,0,0,0,1.63,6.15,11.17,11.17,0,0,0,4.21,4.15c.24.14.49.26.74.38l-.38.18L321.2,74.2l-2.52,1.22-.86.43.4.88a11.69,11.69,0,0,0,4.44,5.11,12.23,12.23,0,0,0,6.7,1.91c4.06,0,7.25-1.22,9.48-3.63s3.33-6,3.33-10.58V50.72h-8.08v1a8.29,8.29,0,0,0-1.06-.59,9.72,9.72,0,0,0-4.15-.91ZM329.94,66a3.89,3.89,0,0,1-2.8-1.12A3.8,3.8,0,0,1,326,62a3.6,3.6,0,0,1,1.15-2.77,3.89,3.89,0,0,1,2.8-1.1,4.11,4.11,0,0,1,2.85,1.07,3.54,3.54,0,0,1,1.14,2.8,3.76,3.76,0,0,1-1.19,2.88,4,4,0,0,1-2.8,1.15Zm-1.06,7.85A9.79,9.79,0,0,0,333,73a7.26,7.26,0,0,0,1-.53A4.66,4.66,0,0,1,332.89,75a4.58,4.58,0,0,1-3.53,1.22,4.87,4.87,0,0,1-2.63-.81,3.71,3.71,0,0,1-1.65-1.85l-.14-.39a11.35,11.35,0,0,0,3.94.7Z"/><path class="cls-3" d="M1.44,72.42,12.79,41.86h7.06l11.3,30.56H24.31l-2.69-7.23H11.05l-2.7,7.23ZM13.18,59.56h6.34L16.3,48.92Z"/><path class="cls-3" d="M30,51.72h6.56l4.57,11.74,4.61-11.74h6.56L39.56,82.58H33L38,70.3Z"/><path class="cls-3" d="M55.34,72.42v-32h6.13v32Z"/><path class="cls-3" d="M65.93,62.05a11.05,11.05,0,0,1,.9-4.47,9.89,9.89,0,0,1,2.4-3.43A11.29,11.29,0,0,1,72.61,52a10.16,10.16,0,0,1,3.87-.77,9.06,9.06,0,0,1,1.81.19,8.24,8.24,0,0,1,2.23.84,5.45,5.45,0,0,1,2,1.72V51.72h6.09v20.7H82.52V70.06a5.44,5.44,0,0,1-2.71,2,9.34,9.34,0,0,1-3.33.7,10.41,10.41,0,0,1-9-5.06A10.61,10.61,0,0,1,65.93,62.05Zm8-3.54a4.76,4.76,0,0,0,0,7.07A5.31,5.31,0,0,0,77.5,67,5.1,5.1,0,0,0,81,65.61a4.56,4.56,0,0,0,1.5-3.56A4.61,4.61,0,0,0,81,58.46a5.1,5.1,0,0,0-3.52-1.35A5.29,5.29,0,0,0,73.89,58.51Z"/><path class="cls-3" d="M94.31,72.42V51.72h6.13v3.07a6.29,6.29,0,0,1,2.48-2.56,6.93,6.93,0,0,1,3.51-1A7.09,7.09,0,0,1,112,53.49c1.34,1.49,2,3.68,2,6.57V72.42h-6.13v-11a4.34,4.34,0,0,0-1-3,3.44,3.44,0,0,0-2.62-1.05q-3.83,0-3.82,4.17V72.42Z"/><path class="cls-3" d="M127,57.22a16.07,16.07,0,0,1,2-7.9,15,15,0,0,1,13.32-7.8,15.62,15.62,0,0,1,7.34,1.74A14.4,14.4,0,0,1,155,48l-5.26,3.62a9.14,9.14,0,0,0-3.21-2.91,8.57,8.57,0,0,0-4.24-1.08A8.14,8.14,0,0,0,136,50.41,10.38,10.38,0,0,0,136,64a8.18,8.18,0,0,0,6.31,2.76,8.52,8.52,0,0,0,4.34-1.15,9.58,9.58,0,0,0,3.28-3.08l5.22,3.64a14.5,14.5,0,0,1-5.4,4.9,15.56,15.56,0,0,1-7.44,1.8,15.3,15.3,0,0,1-10.94-4.6,15.49,15.49,0,0,1-3.2-5A16,16,0,0,1,127,57.22Z"/><path class="cls-3" d="M157.77,62a10.82,10.82,0,0,1,1.47-5.63,9.89,9.89,0,0,1,3.91-3.79,11.58,11.58,0,0,1,10.72,0,10.12,10.12,0,0,1,3.93,3.81,10.73,10.73,0,0,1,1.48,5.6,10.86,10.86,0,0,1-1.48,5.63,10.1,10.1,0,0,1-3.93,3.83,11.58,11.58,0,0,1-10.72,0,9.91,9.91,0,0,1-3.91-3.8A10.89,10.89,0,0,1,157.77,62Zm6.09,0a4.47,4.47,0,0,0,1.35,3.37,4.56,4.56,0,0,0,3.3,1.3,4.64,4.64,0,0,0,3.33-1.29A4.45,4.45,0,0,0,173.19,62a4.38,4.38,0,0,0-1.36-3.32,4.61,4.61,0,0,0-3.32-1.3,4.56,4.56,0,0,0-3.3,1.3A4.41,4.41,0,0,0,163.86,62Z"/><path class="cls-3" d="M183.7,72.42V51.72h6.13v3.07a6.35,6.35,0,0,1,2.48-2.56,6.93,6.93,0,0,1,3.51-1,7.13,7.13,0,0,1,5.57,2.23q2,2.23,2,6.57V72.42h-6.13v-11a4.3,4.3,0,0,0-1-3,3.43,3.43,0,0,0-2.62-1.05q-3.83,0-3.82,4.17V72.42Z"/><path class="cls-3" d="M207.65,65.73h5.76a2.12,2.12,0,0,0,.93,1.57,3.43,3.43,0,0,0,2.13.68,3.59,3.59,0,0,0,1.79-.51,1.43,1.43,0,0,0,.29-2.29A4.13,4.13,0,0,0,217,64.5l-2.7-.71a13.3,13.3,0,0,1-3-1.18,8.45,8.45,0,0,1-1.86-1.35,4.42,4.42,0,0,1-.93-1.5,5.4,5.4,0,0,1-.37-1.38,12.83,12.83,0,0,1,0-1.29A5.19,5.19,0,0,1,210.49,53a9.23,9.23,0,0,1,5.63-1.77,13.16,13.16,0,0,1,2.46.23,9.52,9.52,0,0,1,2.28.75,6.71,6.71,0,0,1,1.91,1.3,5.76,5.76,0,0,1,1.31,2,7,7,0,0,1,.51,2.65h-5.77c0-1.29-.81-1.93-2.36-1.93a2.72,2.72,0,0,0-1.59.42,1.24,1.24,0,0,0-.57,1.12c0,.75.66,1.26,1.82,1.55l3.5.93a9.76,9.76,0,0,1,2.49,1,6.52,6.52,0,0,1,1.63,1.29,5.44,5.44,0,0,1,1.48,3.69,5.57,5.57,0,0,1-.78,2.92,5.86,5.86,0,0,1-2.06,2.08,10.6,10.6,0,0,1-2.86,1.2,12.82,12.82,0,0,1-3.23.41,10.57,10.57,0,0,1-2.51-.3,9.34,9.34,0,0,1-2.34-.89,8.72,8.72,0,0,1-1.95-1.42,6.24,6.24,0,0,1-1.33-2A6.94,6.94,0,0,1,207.65,65.73Z"/><path class="cls-3" d="M229.37,64.08V51.72h6.13V62.86a5.31,5.31,0,0,0,.36,2,3,3,0,0,0,.95,1.29,4.43,4.43,0,0,0,1.17.62,3.76,3.76,0,0,0,1.19.2,3.72,3.72,0,0,0,2.69-1,4.31,4.31,0,0,0,1.07-3.23v-11h6.13v20.7h-6.13V69.65A5.87,5.87,0,0,1,240.62,72a6.18,6.18,0,0,1-3.07.86,8,8,0,0,1-5.91-2.26Q229.38,68.35,229.37,64.08Z"/><path class="cls-3" d="M254.78,72.42v-32h6.13v32Z"/><path class="cls-3" d="M264.78,56.59V51.72h3.77V43.77h6.13v7.95H279v4.87h-4.36V72.42h-6.13V56.59Z"/><path class="cls-3" d="M283.12,46.61A3.4,3.4,0,0,1,282,44a3.34,3.34,0,0,1,1.14-2.56,3.9,3.9,0,0,1,2.72-1,3.76,3.76,0,0,1,2.66,1A3.38,3.38,0,0,1,289.6,44a3.43,3.43,0,0,1-1.1,2.58,3.73,3.73,0,0,1-2.66,1.06A3.87,3.87,0,0,1,283.12,46.61Zm-.34,25.81V51.72h6.13v20.7Z"/><path class="cls-3" d="M294.56,72.42V51.72h6.13v3.07a6.31,6.31,0,0,1,2.49-2.56,6.93,6.93,0,0,1,3.51-1,7.09,7.09,0,0,1,5.56,2.23c1.34,1.49,2,3.68,2,6.57V72.42h-6.13v-11a4.3,4.3,0,0,0-1-3,3.41,3.41,0,0,0-2.61-1.05q-3.82,0-3.83,4.17V72.42Z"/><path class="cls-3" d="M318.52,62.13a11.48,11.48,0,0,1,.87-4.49,9.89,9.89,0,0,1,2.32-3.44A10.76,10.76,0,0,1,325,52a10,10,0,0,1,3.86-.78,8.72,8.72,0,0,1,3.73.81,5.2,5.2,0,0,1,2.48,2.2V51.72h6.08V69.54q0,6.58-3.07,9.9t-8.74,3.31A11.21,11.21,0,0,1,323.2,81a10.67,10.67,0,0,1-4.07-4.68l2.51-1.22,2.5-1.21a4.77,4.77,0,0,0,2.07,2.37,6,6,0,0,0,3.15.95c4.13,0,6-2.46,5.73-7.37a5,5,0,0,1-2.47,2.2,8.77,8.77,0,0,1-3.74.82,10.34,10.34,0,0,1-5-1.3A10.23,10.23,0,0,1,320,67.77,10.71,10.71,0,0,1,318.52,62.13ZM325,62a4.81,4.81,0,0,0,1.46,3.64,5,5,0,0,0,7,0,4.7,4.7,0,0,0,1.51-3.6,4.5,4.5,0,0,0-1.48-3.54,5,5,0,0,0-3.51-1.33,4.94,4.94,0,0,0-3.49,1.37A4.59,4.59,0,0,0,325,62Z"/><path class="cls-4" d="M239.24,35.69c-.38-1.17-.73-2.35-1.16-3.51s-.87-2.31-1.45-3.39a28.39,28.39,0,0,0-1.83-3.22c-.33-.52-.68-1-1-1.53s-.75-1-1.13-1.45a51.9,51.9,0,0,0-10.43-9.85,63.07,63.07,0,0,0-25-10.36,83.52,83.52,0,0,0-25.84-.7A97,97,0,0,0,147,8a121.12,121.12,0,0,0-21.88,11.54A81,81,0,0,0,107,36a64.74,64.74,0,0,0-6.72,10.21h.63a64.82,64.82,0,0,1,6.66-9.75,77.71,77.71,0,0,1,18.27-15.9,76,76,0,0,1,22.22-9.38,90.53,90.53,0,0,1,23.64-2.57,74.26,74.26,0,0,1,22.66,4.27,53.53,53.53,0,0,1,18.56,11.21,36.36,36.36,0,0,1,6.25,8l.62,1.06c.19.36.36.73.56,1.08.42.7.74,1.44,1.13,2.15s.72,1.44,1.09,2.16.63,1.49,1,2.23a34.79,34.79,0,0,1,1.23,19.72,51.59,51.59,0,0,1-9.19,19.43,73.36,73.36,0,0,1-16.18,15.8,89.5,89.5,0,0,1-20.49,10.87,91,91,0,0,1-22.87,5.4,75.61,75.61,0,0,1-23.66-1.17,54.84,54.84,0,0,1-21.72-9.73,43.38,43.38,0,0,1-8.41-8.6,39.74,39.74,0,0,1-5.55-10.7c-.37-1.12-.69-2.27-1-3.42h-.68c.26,1.23.56,2.45.93,3.65a44.48,44.48,0,0,0,13.68,20.29,63.23,63.23,0,0,0,21.82,11.82,83,83,0,0,0,24.84,3.81,97.44,97.44,0,0,0,25.13-3.46,98.21,98.21,0,0,0,23.61-10A84.86,84.86,0,0,0,225.3,87.79a65.26,65.26,0,0,0,13.48-23.55,51.9,51.9,0,0,0,2.3-14.07A49.21,49.21,0,0,0,239.24,35.69Z"/><path class="cls-1" d="M236.81,66.19a3,3,0,0,1-.95-1.29,5.31,5.31,0,0,1-.36-2V51.72h-6.13V64.08q0,4.28,2.27,6.52a7.47,7.47,0,0,0,3.79,2,60.72,60.72,0,0,0,2.48-5.85A4.07,4.07,0,0,1,236.81,66.19Z"/><path class="cls-1" d="M224.67,64a6.92,6.92,0,0,0-.54-.9,49.25,49.25,0,0,1-3.67,9.07,10.17,10.17,0,0,0,1.92-.88,5.86,5.86,0,0,0,2.06-2.08,5.57,5.57,0,0,0,.78-2.92,5,5,0,0,0-.55-2.29Z"/></g></g></svg>